<svg width="70" height="73" viewBox="0 0 70 73" fill="none" xmlns="http://www.w3.org/2000/svg">
<path d="M39.6621 36.8535C48.9626 32.2397 59.2293 33.9112 69.2051 34.1328L67.6084 36.8721C63.538 46.6559 66.0754 60.2181 57.4053 67.7568C53.4625 71.1702 48.2048 72.6485 43.0391 71.8818C43.6415 62.6092 47.3288 53.2449 53.7539 46.4912C54.2651 45.9618 56.2918 44.3192 56.4561 43.9541C56.8572 43.0782 55.9994 42.6402 55.1416 42.9688C54.0099 43.4068 52.148 44.6843 51.0527 45.3779C43.3498 50.2516 36.3407 56.9694 32.0146 65.0557C31.7591 65.4025 31.6676 65.165 31.4668 64.9824C29.7693 63.3944 28.1449 58.2473 27.9805 55.9473C27.3234 47.0397 31.941 40.6685 39.6621 36.8535ZM68.4121 64.2158C69.2891 64.2158 69.9999 64.9267 70 65.8037C70 66.6808 69.2892 67.3916 68.4121 67.3916C67.535 67.3916 66.8242 66.6808 66.8242 65.8037C66.8243 64.9267 67.5351 64.2158 68.4121 64.2158ZM18.2881 63.2852C19.1649 63.2854 19.876 63.9961 19.876 64.873C19.8759 65.7499 19.1649 66.4607 18.2881 66.4609C17.4111 66.4609 16.6993 65.7501 16.6992 64.873C16.6992 63.996 17.411 63.2852 18.2881 63.2852ZM6.53223 57.0967C8.71975 57.0967 10.493 58.8701 10.4932 61.0576C10.4932 63.2452 8.71983 65.0186 6.53223 65.0186C4.34473 65.0184 2.57129 63.2451 2.57129 61.0576C2.57143 58.8702 4.34482 57.0968 6.53223 57.0967ZM26.1367 55.3809C21.7559 54.5777 18.9628 50.0692 17.3018 46.2725C17.0643 45.7425 15.6784 42.2588 15.8965 42.0381C19.3646 41.5635 22.8511 41.0706 26.374 41.0889L26.1367 55.3809ZM5.58301 45.123C6.56845 44.5391 13.7939 42.2032 14.29 42.5303C15.6043 47.0571 17.7041 51.438 21.1357 54.7236C15.0391 53.5919 9.41624 49.9237 5.58301 45.123ZM30.9746 41.2529L27.9619 45.8525V41.0889L30.9746 41.2529ZM12.2461 28.5488C12.3739 32.7105 12.8118 36.8726 13.834 40.9248C10.6581 41.5819 7.57319 42.5668 4.56152 43.7715C1.31254 39.409 -0.403655 33.9882 -0.604492 28.5488H12.2461ZM26.374 39.501C22.6869 39.501 19.036 39.9752 15.4219 40.541C14.345 36.6349 14.0165 32.5827 13.834 28.5488H26.374V39.501ZM40.4844 28.5488C40.2836 30.6844 40.4297 32.9111 39.8457 34.9736C38.422 35.6855 36.9985 36.4162 35.666 37.3105C35.0821 37.6937 32.9108 39.5355 32.5811 39.6279C31.3398 39.9747 29.2765 39.2454 27.9258 39.501V28.5488H40.4844ZM69.2334 34.1338C69.224 34.1336 69.2145 34.133 69.2051 34.1328L69.2148 34.1162L69.2334 34.1338ZM54.5938 32.0352C50.2495 31.9987 45.9419 32.7655 41.835 34.1162L42.0723 28.5664H54.9209L54.5938 32.0352ZM54.9229 28.5664H54.9209L54.9229 28.5488V28.5664ZM26.3564 16.0264H26.374V26.9785H13.834C13.98 22.9446 14.3274 18.8925 15.4043 14.9863L26.3564 16.0264ZM13.8154 14.6758C12.7933 18.6914 12.3921 22.8348 12.2461 26.96H-0.604492C-0.458395 22.415 0.76466 17.9244 3.00977 14C3.2656 13.5614 4.26893 11.738 4.70703 11.7373L13.8154 14.6758ZM38.8965 14.9678C39.9917 18.8739 40.3015 22.9261 40.4658 26.96H27.9443V16.0088L38.8965 14.9678ZM49.6104 11.7373C50.0301 11.7373 51.0529 13.5616 51.3086 14C53.5537 17.9244 54.795 22.415 54.9229 26.96H42.0723C41.9262 22.8166 41.5241 18.6914 40.502 14.6758L49.6104 11.7373ZM64.3047 18.8564C65.1817 18.8564 65.8936 19.5673 65.8936 20.4443C65.8934 21.3213 65.1816 22.0322 64.3047 22.0322C63.4279 22.032 62.717 21.3211 62.7168 20.4443C62.7168 19.5674 63.4278 18.8567 64.3047 18.8564ZM26.374 14.4385C25.3518 14.11 24.1834 14.3477 23.1064 14.293C22.3569 14.2563 15.9327 13.5984 15.8779 13.2334C17.4842 7.94003 20.3869 1.27791 26.3555 0H26.374V14.4385ZM27.9629 0C33.9314 1.24142 36.8524 7.94003 38.4404 13.2334C38.3857 13.5984 31.9616 14.2563 31.2119 14.293C30.135 14.3477 28.9665 14.11 27.9443 14.4385V0H27.9629ZM21.2812 0.638672C17.7401 3.88779 15.5313 8.39652 14.29 13.0146L5.56445 10.4775C5.45574 10.3673 6.29544 9.36343 6.44141 9.19922C10.1469 4.94638 15.7506 1.7521 21.2812 0.638672ZM33.0195 0.620117C38.532 1.73365 44.1722 4.94692 47.8594 9.18164C47.9877 9.34654 48.8442 10.3308 48.7354 10.459L40.0098 12.9961C38.7503 8.39637 36.5788 3.86914 33.0195 0.620117ZM62.8135 3.32129C65.4445 3.32145 67.577 5.45397 67.5771 8.08496C67.5771 10.716 65.4445 12.8494 62.8135 12.8496C60.1823 12.8496 58.0488 10.7161 58.0488 8.08496C58.0489 5.45387 60.1824 3.32129 62.8135 3.32129Z" fill="url(#paint0_linear_3864_133135)"/>
<defs>
<linearGradient id="paint0_linear_3864_133135" x1="64.9568" y1="36.4138" x2="10.7739" y2="51.4439" gradientUnits="userSpaceOnUse">
<stop stop-color="#84E498"/>
<stop offset="1" stop-color="#4FB063"/>
</linearGradient>
</defs>
</svg>
